<svg width="26" height="26" viewBox="0 0 26 26" fill="none" xmlns="http://www.w3.org/2000/svg">
<circle cx="19.5" cy="7.5" r="6.5" fill="#FF4201"/>
<path fill-rule="evenodd" clip-rule="evenodd" d="M14.9182 1.56175C13.7242 1.12762 12.3888 0.916992 10.9999 0.916992C8.67427 0.916992 6.49859 1.50755 4.8856 2.74915C3.2494 4.00862 2.24994 5.8969 2.24994 8.33366C2.24994 10.7662 1.35778 13.5528 0.399938 15.8279C-0.584583 18.1663 1.03051 21.0837 3.70978 21.0837H6.24995V21.667C6.24995 22.9992 6.8017 24.0541 7.71405 24.7564C8.60317 25.4408 9.77885 25.7503 11 25.7503C12.2211 25.7503 13.3967 25.4408 14.2859 24.7564C15.1982 24.0541 15.75 22.9992 15.75 21.667V21.0837H18.2901C20.9694 21.0837 22.5845 18.1663 21.5999 15.8279C21.4611 15.498 21.3236 15.1575 21.19 14.8088C20.6963 14.9225 20.184 14.9875 19.6584 14.9984C19.8404 15.4897 20.0291 15.9624 20.2175 16.4099C20.8416 17.8923 19.7564 19.5837 18.2901 19.5837H15H6.99995H3.70978C2.24347 19.5837 1.15831 17.8923 1.78241 16.4099C2.76192 14.0834 3.74994 11.0722 3.74994 8.33366C3.74994 6.35214 4.54133 4.90708 5.80056 3.93779C7.08301 2.95062 8.90733 2.41699 10.9999 2.41699C11.9646 2.41699 12.8723 2.5304 13.6961 2.74936C14.0571 2.30886 14.4673 1.91019 14.9182 1.56175ZM7.74995 21.0837H14.25V21.667C14.25 22.5439 13.9063 23.1557 13.3709 23.5678C12.8123 23.9977 11.988 24.2503 11 24.2503C10.0119 24.2503 9.18759 23.9977 8.629 23.5678C8.09363 23.1557 7.74995 22.5439 7.74995 21.667V21.0837Z" fill="#25C97C"/>
<path d="M19.185 10V5.7925L18.1575 6.22V5.32L19.56 4.75H20.2125V10H19.185Z" fill="white"/>
</svg>
