<svg width="26" height="25" viewBox="0 0 26 25" fill="none" xmlns="http://www.w3.org/2000/svg">
<path d="M15.8284 15.5049L16.6002 14.7332L16.6002 14.7332L15.8284 15.5049ZM1.66662 17H0.57516H1.66662ZM1.96993 21.6176L3.05152 21.4711L1.96993 21.6176ZM24.03 21.6176L22.9484 21.4711L24.03 21.6176ZM11.2633 1.98787L11.8346 2.9179L11.2633 1.98787ZM14.7366 1.98788L15.3078 1.05785L14.7366 1.98788ZM21.5846 22.5752H19.6666V24.7582H21.5846V22.5752ZM18.0914 21V18.3334H15.9085V21H18.0914ZM18.0914 18.3334C18.0914 16.983 17.555 15.688 16.6002 14.7332L15.0566 16.2767C15.6021 16.8222 15.9085 17.562 15.9085 18.3334H18.0914ZM16.6002 14.7332C15.6453 13.7783 14.3503 13.2419 13 13.2419V15.4248C13.7713 15.4248 14.5111 15.7313 15.0566 16.2767L16.6002 14.7332ZM13 13.2419C11.6496 13.2419 10.3546 13.7783 9.39974 14.7332L10.9433 16.2767C11.4888 15.7313 12.2286 15.4248 13 15.4248V13.2419ZM9.39974 14.7332C8.44491 15.688 7.90849 16.983 7.90849 18.3334H10.0914C10.0914 17.562 10.3979 16.8222 10.9433 16.2767L9.39974 14.7332ZM7.90849 18.3334V21H10.0914V18.3334H7.90849ZM6.33329 22.5752H4.41536V24.7582H6.33329V22.5752ZM10.6921 1.05785C9.18014 1.98653 6.92596 3.53046 4.89483 5.56159L6.4384 7.10515C8.3042 5.23935 10.4025 3.79752 11.8346 2.9179L10.6921 1.05785ZM21.1051 5.56159C19.0739 3.53046 16.8198 1.98653 15.3078 1.05785L14.1653 2.9179C15.5974 3.79752 17.6957 5.23935 19.5615 7.10515L21.1051 5.56159ZM3.05152 21.4711C2.90096 20.3594 2.75809 18.8235 2.75809 17H0.57516C0.57516 18.9361 0.726744 20.5708 0.888341 21.764L3.05152 21.4711ZM23.2418 17C23.2418 18.8235 23.099 20.3594 22.9484 21.4711L25.1116 21.7641C25.2732 20.5708 25.4248 18.9361 25.4248 17H23.2418ZM4.89483 5.56159C2.69951 7.75691 1.57249 9.57773 1.03359 11.4488C0.508809 13.2709 0.57516 15.0669 0.57516 17H2.75809C2.75809 14.9332 2.71217 13.5081 3.13125 12.053C3.53622 10.6469 4.40919 9.13436 6.4384 7.10515L4.89483 5.56159ZM25.4248 17C25.4248 15.0669 25.4911 13.2709 24.9663 11.4488C24.4274 9.57772 23.3004 7.7569 21.1051 5.56159L19.5615 7.10515C21.5907 9.13434 22.4637 10.6469 22.8686 12.053C23.2877 13.5081 23.2418 14.9332 23.2418 17H25.4248ZM4.41536 22.5752C3.6809 22.5752 3.13504 22.0878 3.05152 21.4711L0.888341 21.764C1.13326 23.5725 2.70252 24.7582 4.41536 24.7582V22.5752ZM7.90849 21C7.90849 21.87 7.20325 22.5752 6.33329 22.5752V24.7582C8.40884 24.7582 10.0914 23.0756 10.0914 21H7.90849ZM19.6666 22.5752C18.7967 22.5752 18.0914 21.87 18.0914 21H15.9085C15.9085 23.0756 17.5911 24.7582 19.6666 24.7582V22.5752ZM21.5846 24.7582C23.2974 24.7582 24.8666 23.5725 25.1116 21.7641L22.9484 21.4711C22.8649 22.0878 22.319 22.5752 21.5846 22.5752V24.7582ZM11.8346 2.9179C12.557 2.47419 13.4429 2.47419 14.1653 2.9179L15.3078 1.05785C13.8846 0.183637 12.1153 0.183636 10.6921 1.05785L11.8346 2.9179Z" fill="#FF4201"/>
</svg>
